<svg id="Layer_1" data-name="Layer 1" xmlns="http://www.w3.org/2000/svg" viewBox="0 0 400.23 400.19"><defs><style>.cls-1{fill:#fff;}</style></defs><rect x="0.23" y="0.19" width="400" height="400"/><path id="path1442" class="cls-1" d="M199.34,397.45c-8.3-9.46-42-69.37-40.08-71.25.7-.69,10.56,1.81,21.91,5.55s20.94,6.41,21.31,5.94,10.22-17.35,21.9-37.52c27.24-47.05,28.77-49,39.34-50.69,6.65-1,11.7-4.33,24-15.56,25.41-23.24,25.92-24.77-17.32,52C251.15,320,209.83,390.49,205,397.45,202.58,400.85,202.31,400.85,199.34,397.45Zm-40.4-85C127.09,297.82,97.35,271.84,82.87,246c-6.64-11.85-9.59-15.25-13.66-15.73-6.56-.78-15.33,8.92-17.26,19.1-.76,4-2.41,6.82-3.7,6.41-4.12-1.34-7.7-20.12-8.83-46.29-.89-20.72-.3-29.42,3.18-46.72,2.35-11.7,3.87-21.66,3.37-22.15-2-1.95-21.44,11.19-33.91,22.88s-13.13,12-11.8,6.27C3,157.69,14.62,138.21,26,126.47c6.39-6.59,22.78-20.08,36.41-30C80,83.67,99,66.67,128,37.8,152.61,13.23,169.08-1.74,169.62-.07S171,12,171.7,23.43c1.21,20.76,2.44,27.16,5.2,27.16.82,0,7-4.21,13.7-9.36,21.41-16.4,20.25-16.93,19,8.66l-1.06,22.17,25.79,14.18c14.18,7.81,26.24,15.36,26.8,16.79s-.56,5.87-2.48,9.86-3,8.54-2.38,10.1c1.75,4.5,13.67,8.51,54.82,18.43,21.09,5.09,39.18,10.05,40.18,11,3.18,3.09-9.08,20.7-26.8,38.5-20.11,20.2-16,19.86-62.79,5.2-44.8-14-57.35-14.14-55.39-.51.62,4.3,2,4.82,17,6.16,19.48,1.74,55.24,8.7,61.39,11.95,4.17,2.2,3.83,2.82-7.79,14.2l-12.15,11.9-22.71-4.93c-12.5-2.72-27.28-5-32.85-5-9.09-.05-10.9.75-17.7,7.8-18.13,18.81-23.78,46.43-15.36,75.17,1.81,6.17-3.11,6-17.24-.45ZM328.31,136l-6.7-2,10.31-20.28c5.68-11.16,10.32-20.76,10.32-21.34s-13.71-1.06-30.46-1.06c-40.5,0-51.55-2-68.44-12.2C227.59,69.61,220.4,64,220.4,61.23c0-1.08,3.49-2.53,7.75-3.22,10.39-1.7,152-1.37,163.1.37L400,59.76,383.84,89c-8.89,16.11-19.34,33.53-23.23,38.71-6.44,8.61-7.87,9.47-16.33,9.81A61.2,61.2,0,0,1,328.31,136ZM24.7,94.9C14.72,80.34,3.58,61.39,3.58,59S79.1,56,88,58.47c4.62,1.28,4,2.11-9.29,12.59-21.9,17.27-43.41,32.5-45.88,32.5C31.63,103.56,28,99.66,24.7,94.9Z" transform="translate(0.23 0.19)"/></svg>